<?xml version="1.0" standalone="no"?>
<!DOCTYPE svg PUBLIC "-//W3C//DTD SVG 20010904//EN"
 "http://www.w3.org/TR/2001/REC-SVG-20010904/DTD/svg10.dtd">
<svg version="1.0" xmlns="http://www.w3.org/2000/svg"
 width="1059.000000pt" height="1059.000000pt" viewBox="0 0 1059.000000 1059.000000"
 preserveAspectRatio="xMidYMid meet">
<metadata>
Created by potrace 1.11, written by Peter Selinger 2001-2013
</metadata>
<g transform="translate(0.000000,1059.000000) scale(0.100000,-0.100000)"
fill="#000000" stroke="none">
<path d="M1556 6664 c-3 -9 -6 -90 -6 -180 l0 -164 -533 0 -533 0 -50 -25
c-28 -14 -60 -39 -73 -55 -12 -17 -78 -176 -147 -352 l-124 -322 0 -272 0
-272 -27 -7 c-58 -14 -63 -27 -63 -162 0 -173 -14 -163 239 -163 l199 0 32 57
c44 78 126 155 207 195 64 31 74 33 173 33 97 0 110 -2 171 -31 40 -19 97 -60
145 -103 87 -80 168 -124 258 -140 39 -7 288 -11 718 -11 l658 0 24 49 c69
135 210 231 355 239 136 8 226 -29 351 -144 79 -72 163 -118 249 -134 35 -6
594 -10 1611 -10 1300 0 1559 2 1569 14 8 10 10 277 9 992 l-3 979 -2701 3
c-2457 2 -2702 1 -2708 -14z m5344 -974 l0 -920 -1562 2 -1563 3 -68 32 c-42
20 -92 56 -130 92 -115 110 -233 161 -374 161 -165 0 -346 -104 -429 -247
l-26 -43 -559 0 -559 0 0 920 0 920 2635 0 2635 0 0 -920z m-5350 230 l0 -320
-680 0 c-374 0 -680 2 -680 5 0 8 202 529 216 556 7 15 27 38 44 53 l32 26
534 0 534 0 0 -320z m0 -771 l0 -382 -62 6 c-98 8 -168 40 -246 111 -89 81
-143 118 -217 146 -74 27 -199 37 -277 21 -122 -26 -248 -114 -323 -226 l-36
-55 -160 0 -159 0 0 85 0 85 38 0 c21 0 43 5 50 12 9 9 12 88 12 295 l0 283
690 0 690 0 0 -381z"/>
<path d="M3535 5979 c-51 -12 -113 -62 -131 -105 -17 -40 -18 -127 -3 -157 29
-56 63 -77 175 -113 118 -36 138 -49 132 -86 -9 -67 -140 -58 -244 17 -20 15
-23 13 -63 -37 l-41 -53 32 -28 c56 -48 132 -71 233 -71 74 0 98 4 132 22 73
38 112 114 99 195 -15 90 -58 126 -208 171 -106 32 -134 55 -110 93 24 38 107
35 180 -8 18 -10 39 -19 45 -19 7 0 27 23 45 51 39 60 37 65 -46 102 -65 29
-166 41 -227 26z"/>
<path d="M5930 5977 c-98 -28 -174 -99 -211 -196 -29 -79 -23 -195 14 -268 55
-107 143 -163 268 -171 100 -6 172 15 230 66 l43 39 -32 40 c-51 65 -54 66
-93 37 -46 -35 -76 -46 -125 -46 -154 0 -230 203 -121 320 65 70 177 70 253 1
21 -19 21 -19 62 25 23 25 42 52 42 59 0 15 -68 65 -115 86 -43 19 -162 23
-215 8z"/>
<path d="M1934 5942 c-8 -21 -31 -75 -51 -122 -19 -47 -41 -98 -48 -115 -21
-46 -145 -344 -145 -348 0 -1 30 -3 67 -3 l67 1 26 62 c15 35 29 65 32 68 3 3
62 7 131 8 l125 2 29 -70 28 -69 68 -1 c82 -1 82 -16 -2 182 -32 76 -84 199
-115 273 -31 74 -60 142 -65 150 -6 11 -27 15 -70 17 l-62 1 -15 -36z m94
-169 c6 -16 22 -58 36 -94 l25 -67 -77 3 c-42 1 -78 3 -79 4 -2 1 18 50 42
106 7 17 16 40 20 53 9 30 21 28 33 -5z"/>
<path d="M2220 5964 c0 -9 114 -304 139 -359 5 -11 29 -72 54 -135 l45 -115
62 0 62 0 123 308 c67 169 117 308 111 308 -28 3 -130 -1 -134 -6 -3 -3 -11
-20 -17 -38 -72 -204 -140 -376 -146 -370 -4 5 -21 49 -39 98 -18 50 -36 99
-41 110 -5 11 -22 58 -39 105 -17 47 -36 89 -41 95 -13 13 -139 13 -139 -1z"/>
<path d="M2843 5665 l0 -310 69 0 68 0 0 92 0 93 74 0 c176 0 276 83 276 229
0 37 -31 109 -60 140 -49 50 -98 62 -269 64 l-158 2 0 -310z m294 175 c32 -12
53 -45 53 -86 0 -63 -48 -94 -144 -94 -35 0 -66 4 -68 10 -1 5 -2 48 0 95 l3
85 63 0 c35 0 77 -5 93 -10z"/>
<path d="M3890 5665 l0 -315 235 0 235 0 0 65 0 65 -165 0 -165 0 0 60 0 60
145 0 145 0 0 65 0 65 -145 0 -145 0 0 60 0 60 165 0 165 0 0 65 0 65 -235 0
-235 0 0 -315z"/>
<path d="M4390 5666 l0 -316 75 0 75 0 0 101 0 100 48 -3 47 -3 65 -97 65 -97
83 -1 c45 0 82 4 82 8 0 5 -31 54 -69 110 l-70 100 40 26 c53 36 82 94 81 171
0 97 -28 146 -107 188 -36 19 -60 22 -227 25 l-188 4 0 -316z m355 149 c33
-33 32 -70 -4 -106 -28 -28 -34 -29 -115 -29 l-86 0 0 80 0 80 90 0 c83 0 93
-2 115 -25z"/>
<path d="M4880 5973 c0 -3 55 -145 122 -315 l122 -308 67 0 66 0 118 296 c65
163 120 305 123 316 4 18 -1 19 -73 16 l-78 -3 -76 -207 c-66 -180 -77 -204
-87 -185 -6 12 -41 106 -79 210 l-68 187 -78 0 c-44 0 -79 -3 -79 -7z"/>
<path d="M5520 5665 l0 -315 70 0 70 0 0 315 0 315 -70 0 -70 0 0 -315z"/>
<path d="M6290 5665 l0 -315 240 0 240 0 0 65 0 65 -165 0 -165 0 0 60 0 60
145 0 145 0 0 65 0 65 -145 0 -145 0 0 60 0 60 160 0 160 0 0 65 0 65 -235 0
-235 0 0 -315z"/>
<path d="M7037 6673 c-4 -3 -7 -446 -7 -983 0 -746 3 -979 12 -988 18 -18 214
-15 298 4 84 19 165 67 247 145 122 117 270 156 420 111 112 -35 199 -107 267
-224 l28 -48 488 0 488 0 28 47 c68 118 155 190 267 225 150 45 298 6 420
-111 135 -129 234 -164 457 -159 l135 3 3 993 2 992 -1773 0 c-976 0 -1777 -3
-1780 -7z m3483 -984 l0 -921 -133 4 c-126 3 -137 5 -198 36 -35 17 -95 61
-133 96 -102 95 -231 156 -334 156 l-33 0 24 33 c57 75 54 138 -14 271 -80
158 -85 164 -183 228 -86 56 -94 59 -143 55 -50 -3 -51 -3 -38 17 7 12 25 55
41 96 15 41 28 76 29 77 3 5 165 -57 209 -78 22 -11 75 -34 116 -50 41 -17 99
-46 127 -66 54 -36 83 -38 83 -5 0 11 -22 30 -62 54 -106 61 -146 79 -348 154
l-195 73 -7 128 c-8 154 -33 324 -53 363 -33 64 -158 141 -259 159 -87 16
-281 14 -349 -4 -79 -20 -169 -68 -200 -105 -53 -62 -92 -240 -85 -386 l4 -94
-37 0 c-41 0 -156 -33 -209 -60 -40 -21 -76 -57 -115 -117 -36 -55 -95 -93
-172 -109 -40 -8 -80 -25 -106 -44 -22 -16 -49 -30 -59 -30 -9 0 -38 -10 -63
-22 -37 -18 -45 -27 -45 -50 0 -31 9 -34 48 -14 15 7 48 18 74 25 26 6 76 27
111 46 36 20 78 35 96 35 40 0 143 76 167 123 21 42 52 76 87 93 24 13 27 13
27 -1 0 -8 45 -80 100 -159 55 -79 100 -151 100 -159 0 -9 9 -22 21 -31 11 -8
28 -25 37 -38 15 -22 15 -23 -4 -6 -23 20 -144 78 -162 78 -8 0 -28 -6 -45
-14 -18 -8 -44 -17 -60 -20 -15 -4 -36 -15 -46 -25 -10 -10 -30 -21 -45 -25
-15 -4 -34 -15 -44 -26 -9 -11 -24 -20 -32 -20 -20 0 -60 -36 -60 -53 0 -10
28 -118 46 -180 7 -23 81 -77 106 -77 10 0 26 9 35 20 11 12 30 20 49 20 32 0
60 22 50 39 -4 5 6 5 22 -1 45 -17 65 -4 60 37 -2 19 -3 35 -2 35 1 0 12 -16
24 -36 31 -49 63 -69 89 -54 27 14 26 43 -3 107 -16 34 -20 50 -11 47 7 -3 16
-16 19 -29 7 -27 41 -42 60 -26 9 8 11 23 6 51 -4 22 -3 40 1 40 25 0 -11 62
-41 72 -9 3 -10 7 -3 11 6 4 35 -25 68 -69 32 -42 78 -98 104 -125 26 -27 45
-55 43 -64 -2 -10 1 -22 7 -28 6 -6 11 -20 11 -32 0 -12 5 -26 12 -33 23 -23
1 -21 -52 4 -97 47 -110 49 -66 9 48 -42 42 -44 -32 -6 -94 47 -111 46 -39 -2
38 -25 72 -48 75 -52 7 -7 -132 42 -163 57 -52 26 17 -24 105 -76 52 -31 92
-56 88 -56 -10 0 -378 98 -410 109 -16 5 -28 6 -28 3 0 -6 253 -96 295 -106
38 -9 122 -40 130 -49 7 -7 7 -8 0 -5 -5 3 -89 8 -185 12 l-175 5 75 -20 c135
-36 182 -50 179 -54 -2 -2 -45 -6 -95 -10 l-90 -7 -70 69 c-164 164 -393 199
-596 91 -32 -17 -92 -62 -134 -101 -106 -96 -160 -119 -296 -125 l-108 -5 0
922 0 921 1705 0 1705 0 0 -921z m-1451 808 c64 -23 125 -75 153 -131 26 -50
47 -217 48 -373 l0 -111 38 -12 c20 -7 41 -16 46 -21 5 -5 -5 -45 -24 -96 -18
-48 -33 -94 -33 -101 0 -7 -10 -15 -21 -18 -29 -8 -96 -91 -96 -119 0 -12 7
-26 16 -29 18 -7 62 17 82 46 18 25 101 25 133 -1 l23 -18 -48 -22 c-27 -11
-52 -18 -57 -15 -5 3 -25 2 -45 -2 -29 -5 -39 -14 -50 -40 -13 -31 -32 -50
-21 -21 21 55 20 57 -17 57 -61 0 -72 -57 -15 -75 18 -6 16 -11 -20 -51 -44
-47 -49 -65 -26 -84 19 -16 27 -12 100 42 49 37 138 79 164 78 3 0 -30 -20
-74 -43 -146 -79 -166 -94 -156 -119 6 -16 17 -23 33 -23 19 0 24 -4 20 -17
-7 -28 23 -32 106 -15 125 26 152 25 218 -10 33 -17 72 -45 87 -61 l28 -29
-64 -13 c-71 -13 -221 -82 -210 -96 4 -5 2 -4 -5 2 -9 8 -44 10 -100 7 l-87
-5 160 80 c88 44 157 81 154 81 -4 1 -58 -20 -120 -45 -178 -73 -184 -73 -119
-14 32 28 48 49 39 50 -8 0 -19 -4 -25 -8 -14 -12 -144 -55 -150 -50 -2 3 5
34 16 69 24 77 24 74 5 59 -18 -15 -19 -7 -4 23 10 21 10 21 -5 3 -9 -11 -16
-23 -16 -28 0 -11 -69 -118 -76 -118 -4 0 -3 8 1 18 4 9 8 24 10 33 2 9 8 33
13 53 6 20 9 36 7 36 -2 0 -20 -29 -40 -65 -20 -36 -39 -65 -41 -65 -3 0 -3 3
-1 8 3 4 8 32 12 62 3 30 11 75 16 99 15 66 4 60 -22 -15 -13 -36 -25 -62 -26
-57 -2 4 3 54 10 111 8 56 10 99 7 95 -4 -4 -19 -52 -32 -107 -26 -103 -29
-103 -43 -3 -12 78 -20 61 -23 -46 -1 -56 -4 -111 -7 -122 -2 -11 -4 -33 -5
-50 -1 -24 -5 -19 -19 29 -19 66 -33 74 -80 45 -39 -24 -42 -60 -5 -84 39 -25
24 -27 -24 -4 -37 18 -41 24 -30 38 36 48 65 71 95 77 18 3 33 9 33 13 -1 18
-31 41 -54 41 -16 0 -25 4 -21 10 9 15 -55 92 -71 86 -8 -3 -11 0 -8 8 5 13
-170 225 -199 243 -8 4 -16 16 -20 26 -3 9 -12 17 -19 17 -7 1 -38 35 -70 78
-31 42 -83 109 -116 148 l-60 71 42 13 c22 7 78 15 122 19 l81 6 6 -65 c3 -36
17 -101 30 -145 28 -92 96 -245 108 -245 12 0 12 1 -17 77 -14 38 -39 127 -55
198 -27 122 -29 144 -29 350 0 129 -4 215 -9 210 -18 -19 -41 -156 -42 -247
l-2 -93 -10 75 c-12 89 3 222 34 304 25 68 77 116 155 146 112 42 329 46 433
7z m-686 -1114 c-5 -12 -9 -10 -19 8 -19 35 -17 45 5 25 11 -10 17 -25 14 -33z
m300 -108 c-3 -9 -8 -14 -10 -11 -3 3 -2 9 2 15 9 16 15 13 8 -4z m667 -350
c-20 -21 -32 -25 -79 -24 l-56 1 70 23 c90 30 93 30 65 0z m-57 -61 c-3 -8
-12 -13 -20 -10 -8 3 -22 6 -31 7 -14 0 -13 2 3 9 33 14 55 12 48 -6z"/>
<path d="M7666 5372 c-25 -3 -18 -8 52 -39 76 -32 83 -34 98 -18 18 18 19 17
-16 35 -30 16 -94 26 -134 22z"/>
<path d="M7872 5327 c-18 -7 -48 -25 -67 -40 -33 -27 -35 -31 -35 -92 0 -35 4
-66 9 -69 13 -8 71 14 72 27 2 35 13 68 39 125 16 34 26 62 22 61 -4 0 -22 -6
-40 -12z"/>
<path d="M8710 6470 c-25 -4 -64 -13 -87 -19 -51 -14 -51 -6 -20 -211 20 -134
24 -145 42 -141 11 2 112 6 225 8 l205 5 53 116 c29 65 52 124 52 133 0 23
-55 71 -77 67 -14 -3 -19 -15 -23 -63 l-4 -60 -6 75 -5 75 -55 12 c-62 13
-232 15 -300 3z m357 -242 c-2 -13 -4 -5 -4 17 -1 22 1 32 4 23 2 -10 2 -28 0
-40z"/>
<path d="M8825 6061 c-3 -6 -3 -15 0 -21 4 -6 -28 -10 -89 -10 -116 0 -116 0
-116 -130 0 -129 1 -130 114 -130 83 0 94 -2 92 -17 0 -10 6 -18 14 -18 8 0
14 8 14 18 -2 15 8 17 82 17 102 0 104 2 104 130 0 128 -2 130 -104 130 -72 0
-84 2 -82 16 1 20 -19 30 -29 15z"/>
<path d="M8605 6050 c3 -5 10 -10 16 -10 5 0 9 5 9 10 0 6 -7 10 -16 10 -8 0
-12 -4 -9 -10z"/>
<path d="M8562 5854 l3 -149 25 -3 c23 -3 24 -3 7 10 -16 12 -19 34 -24 148
-3 74 -7 137 -9 139 -3 3 -3 -62 -2 -145z"/>
<path d="M8299 5880 c-6 -5 10 -15 41 -25 28 -9 68 -31 87 -48 35 -31 36 -31
29 -7 -12 43 -28 80 -35 81 -25 6 -112 4 -122 -1z"/>
<path d="M9218 5818 c-25 -74 -131 -267 -180 -330 -29 -36 -54 -65 -55 -64 -1
1 16 59 39 127 23 69 39 133 35 142 -6 15 -29 17 -209 16 -156 -1 -195 -3
-168 -11 20 -6 102 -9 195 -6 88 2 140 1 115 -3 -25 -4 -127 -8 -228 -8 l-182
-1 6 -27 c3 -16 24 -84 47 -152 38 -118 42 -124 76 -139 60 -26 151 -27 205
-4 25 12 49 28 52 36 3 8 11 13 17 10 14 -5 166 122 194 163 32 44 54 122 60
206 6 82 -1 98 -19 45z"/>
<path d="M8600 5750 c0 -5 7 -10 15 -10 8 0 15 5 15 10 0 6 -7 10 -15 10 -8 0
-15 -4 -15 -10z"/>
<path d="M3133 4846 c-81 -20 -157 -62 -217 -122 -31 -30 -56 -58 -56 -62 0
-4 83 -32 185 -62 102 -29 192 -58 200 -64 20 -16 73 -156 67 -178 -7 -27
-136 -128 -163 -128 -12 0 -98 23 -192 50 -93 28 -172 49 -175 46 -12 -12 33
-140 67 -194 97 -149 235 -218 421 -210 88 3 104 7 172 40 46 23 100 62 143
102 75 70 141 108 223 125 75 16 3419 16 3494 0 82 -17 148 -54 224 -125 41
-39 98 -80 143 -102 65 -32 83 -37 168 -40 117 -5 199 14 281 67 54 36 132
112 132 130 0 4 -75 27 -167 51 -116 30 -175 50 -189 64 -28 27 -77 160 -70
184 6 18 112 107 141 118 10 4 231 -48 349 -83 53 -15 -37 189 -119 272 -101
100 -253 150 -394 128 -100 -16 -183 -58 -268 -136 -81 -74 -126 -100 -210
-122 -86 -23 -3450 -23 -3536 0 -84 22 -129 48 -210 122 -134 123 -286 167
-444 129z"/>
<path d="M761 4834 c-172 -46 -305 -200 -334 -385 -34 -222 103 -444 315 -511
85 -26 215 -24 297 3 213 72 345 306 302 531 -52 267 -317 433 -580 362z m292
-102 c77 -38 143 -106 184 -190 25 -51 28 -68 28 -157 0 -93 -2 -105 -33 -167
-78 -158 -246 -249 -408 -219 -231 43 -378 284 -304 500 26 79 66 139 123 184
85 69 143 88 258 84 74 -3 96 -8 152 -35z"/>
<path d="M9580 4836 c-159 -45 -283 -171 -326 -331 -16 -59 -18 -172 -3 -234
29 -129 133 -255 256 -314 65 -31 73 -32 193 -32 120 0 128 1 193 32 305 144
365 553 115 778 -54 48 -131 89 -199 104 -59 14 -174 12 -229 -3z m245 -85
c75 -26 145 -80 188 -143 54 -79 70 -131 71 -228 1 -75 -3 -92 -31 -152 -82
-174 -263 -267 -434 -223 -85 21 -163 69 -211 129 -53 66 -67 96 -83 174 -49
234 134 461 373 462 47 0 92 -7 127 -19z"/>
</g>
</svg>
